ply
format ascii 1.0
comment Created by Blender 3.1.2 - www.blender.org
element vertex 8
property float x
property float y
property float z
property uchar red
property uchar green
property uchar blue
property uchar alpha
element face 12
property list uchar uint vertex_indices
end_header
-0.707107 0.707107 1.414214 0 255 42 255
1.707107 0.292893 0.000000 45 30 255 255
0.292893 1.707107 0.000000 234 102 102 255
-0.292893 -1.707107 0.000000 0 255 53 255
0.707107 -0.707107 -1.414214 45 16 255 255
0.707107 -0.707107 1.414214 0 255 16 255
-1.707107 -0.292893 0.000000 47 5 255 255
-0.707107 0.707107 -1.414214 254 16 16 255
3 0 1 2
3 1 3 4
3 5 6 3
3 7 3 6
3 2 4 7
3 0 7 6
3 0 5 1
3 1 5 3
3 5 0 6
3 7 4 3
3 2 1 4
3 0 2 7
